<svg width="48" height="48" viewBox="0 0 48 48" fill="none" xmlns="http://www.w3.org/2000/svg">
<path d="M48 21C48 16.038 43.962 12 39 12H34V7C34 4.244 31.758 2 29 2H5C2.244 2 0 4.244 0 7V14H2V7C2 5.346 3.346 4 5 4H29C30.654 4 32 5.346 32 7V36H2V24H0V38H4.36C4.128 38.64 4 39.312 4 40C4 43.308 6.692 46 10 46C13.308 46 16 43.308 16 40C16 39.312 15.872 38.64 15.64 38H32.358C32.126 38.64 31.998 39.31 31.998 40C31.998 43.308 34.69 46 37.998 46C41.306 46 43.998 43.308 43.998 40C43.998 39.31 43.87 38.64 43.638 38H47.998L48 21ZM14 40C14 42.206 12.206 44 10 44C7.794 44 6 42.206 6 40C6 39.292 6.238 38.618 6.608 38H13.392C13.762 38.618 14 39.292 14 40ZM39 14C42.86 14 46 17.14 46 21V24H34V14H39ZM42 40C42 42.206 40.206 44 38 44C35.794 44 34 42.206 34 40C34 39.29 34.238 38.618 34.608 38H41.392C41.762 38.618 42 39.29 42 40ZM34 36V26H46V36H34ZM19.486 20H0V18H19.486L12.744 11.256L14.158 9.842L21.194 16.878C22.364 18.048 22.364 19.95 21.194 21.12L14.158 28.156L12.744 26.742L19.486 20Z" fill="#AF8F11"/>
</svg>
