<svg width="48" height="48" viewBox="0 0 48 48" fill="none" xmlns="http://www.w3.org/2000/svg">
<g clip-path="url(#clip0_1689_2531)">
<path d="M17.0716 28.928C15.1836 27.04 12.6716 26 10.0016 26C7.33157 26 4.81957 27.04 2.92957 28.928C-0.970429 32.828 -0.970429 39.172 2.95557 43.096L6.93157 46.79C7.79557 47.594 8.90357 47.994 10.0116 47.994C11.1196 47.994 12.2356 47.59 13.1016 46.782L17.0716 43.072C20.9716 39.172 20.9716 32.828 17.0716 28.93V28.928ZM15.6816 41.634L11.7356 45.32C10.7696 46.222 9.25957 46.222 8.29357 45.324L4.34357 41.656C1.22357 38.536 1.22357 33.46 4.34357 30.342C5.85557 28.832 7.86357 28 10.0016 28C12.1396 28 14.1476 28.832 15.6576 30.342C18.7776 33.462 18.7776 38.538 15.6816 41.634ZM34.9296 20.788C35.7956 21.592 36.9036 21.994 38.0116 21.994C39.1196 21.994 40.2376 21.588 41.1036 20.78L45.0716 17.072C48.9716 13.172 48.9716 6.82795 45.0716 2.92995C43.1836 1.04195 40.6716 0.00195312 38.0016 0.00195312C35.3316 0.00195312 32.8196 1.04195 30.9296 2.92995C27.0296 6.82995 27.0296 13.174 30.9556 17.098L34.9276 20.788H34.9296ZM32.3456 4.34395C33.8576 2.83395 35.8656 2.00195 38.0036 2.00195C40.1416 2.00195 42.1496 2.83395 43.6596 4.34395C46.7796 7.46395 46.7796 12.54 43.6836 15.636L39.7396 19.32C38.7756 20.222 37.2616 20.224 36.2916 19.324L32.3456 15.658C29.2256 12.538 29.2256 7.46195 32.3456 4.34395ZM48.0036 41.002C48.0036 44.862 44.8636 48.002 41.0036 48.002H19.0016C18.4496 48.002 18.0016 47.554 18.0016 47.002C18.0016 46.45 18.4496 46.002 19.0016 46.002H41.0016C43.7576 46.002 46.0016 43.758 46.0016 41.002C46.0016 38.246 43.7576 36.002 41.0016 36.002H29.0016C25.1416 36.002 22.0016 32.862 22.0016 29.002C22.0016 25.142 25.1416 22.002 29.0016 22.002C29.5536 22.002 30.0016 22.45 30.0016 23.002C30.0016 23.554 29.5536 24.002 29.0016 24.002C26.2456 24.002 24.0016 26.246 24.0016 29.002C24.0016 31.758 26.2456 34.002 29.0016 34.002H41.0016C44.8616 34.002 48.0036 37.142 48.0036 41.002Z" fill="#AF8F11"/>
</g>
<defs>
<clipPath id="clip0_1689_2531">
<rect width="48" height="48" fill="white"/>
</clipPath>
</defs>
</svg>
