<svg width="48" height="48" viewBox="0 0 48 48" fill="none" xmlns="http://www.w3.org/2000/svg">
<g clip-path="url(#clip0_1689_2537)">
<path d="M32 27C32 27.552 31.552 28 31 28H29C28.448 28 28 27.552 28 27C28 26.448 28.448 26 29 26H31C31.552 26 32 26.448 32 27ZM39 26H37C36.448 26 36 26.448 36 27C36 27.552 36.448 28 37 28H39C39.552 28 40 27.552 40 27C40 26.448 39.552 26 39 26ZM31 34H29C28.448 34 28 34.448 28 35C28 35.552 28.448 36 29 36H31C31.552 36 32 35.552 32 35C32 34.448 31.552 34 31 34ZM39 34H37C36.448 34 36 34.448 36 35C36 35.552 36.448 36 37 36H39C39.552 36 40 35.552 40 35C40 34.448 39.552 34 39 34ZM31 9.99995H29C28.448 9.99995 28 10.448 28 11C28 11.552 28.448 12 29 12H31C31.552 12 32 11.552 32 11C32 10.448 31.552 9.99995 31 9.99995ZM39 9.99995H37C36.448 9.99995 36 10.448 36 11C36 11.552 36.448 12 37 12H39C39.552 12 40 11.552 40 11C40 10.448 39.552 9.99995 39 9.99995ZM31 18H29C28.448 18 28 18.448 28 19C28 19.552 28.448 20 29 20H31C31.552 20 32 19.552 32 19C32 18.448 31.552 18 31 18ZM39 18H37C36.448 18 36 18.448 36 19C36 19.552 36.448 20 37 20H39C39.552 20 40 19.552 40 19C40 18.448 39.552 18 39 18ZM48 8.99995V39C48 43.962 43.962 48 39 48H9C4.038 48 0 43.962 0 39V17.704C0 15.272 1.004 12.91 2.756 11.222L6.144 7.95995C8.866 5.33595 13.132 5.33595 15.854 7.95995L19.242 11.222C19.512 11.482 19.766 11.76 19.998 12.05V9.00195C19.998 4.03995 24.036 0.00195312 28.998 0.00195312H38.998C43.96 0.00195312 47.998 4.03995 47.998 9.00195L48 8.99995ZM20 17.704C20 15.812 19.218 13.974 17.856 12.662L14.468 9.39995C13.496 8.46195 12.248 7.99395 11 7.99395C9.752 7.99395 8.504 8.46195 7.532 9.39995L4.144 12.664C2.782 13.976 2 15.814 2 17.706V39.002C2 42.862 5.14 46.002 9 46.002H20V17.704ZM46 8.99995C46 5.13995 42.86 1.99995 39 1.99995H29C25.14 1.99995 22 5.13995 22 8.99995V46H39C42.86 46 46 42.86 46 39V8.99995ZM13 26H9C8.448 26 8 26.448 8 27C8 27.552 8.448 28 9 28H13C13.552 28 14 27.552 14 27C14 26.448 13.552 26 13 26ZM13 18H9C8.448 18 8 18.448 8 19C8 19.552 8.448 20 9 20H13C13.552 20 14 19.552 14 19C14 18.448 13.552 18 13 18ZM13 34H9C8.448 34 8 34.448 8 35C8 35.552 8.448 36 9 36H13C13.552 36 14 35.552 14 35C14 34.448 13.552 34 13 34Z" fill="#AF8F11"/>
</g>
<defs>
<clipPath id="clip0_1689_2537">
<rect width="48" height="48" fill="white"/>
</clipPath>
</defs>
</svg>
