<svg width="48" height="48" viewBox="0 0 48 48" fill="none" xmlns="http://www.w3.org/2000/svg">
<g clip-path="url(#clip0_1689_2525)">
<path d="M40 31C40 31.552 39.552 32 39 32H33C32.448 32 32 31.552 32 31C32 30.448 32.448 30 33 30H39C39.552 30 40 30.448 40 31ZM48 29V41C48 44.86 44.86 48 41 48H7C3.14 48 0 44.86 0 41V29C0 25.14 3.14 22 7 22H10V7C10 3.14 13.14 0 17 0H31C34.86 0 38 3.14 38 7V22H41C44.86 22 48 25.14 48 29ZM12 22H36V7C36 4.242 33.758 2 31 2H17C14.242 2 12 4.242 12 7V22ZM7 46H23V24H7C4.242 24 2 26.242 2 29V41C2 43.758 4.242 46 7 46ZM46 29C46 26.242 43.758 24 41 24H25V46H41C43.758 46 46 43.758 46 41V29ZM15 30H9C8.448 30 8 30.448 8 31C8 31.552 8.448 32 9 32H15C15.552 32 16 31.552 16 31C16 30.448 15.552 30 15 30ZM28 9C28 8.448 27.552 8 27 8H21C20.448 8 20 8.448 20 9C20 9.552 20.448 10 21 10H27C27.552 10 28 9.552 28 9Z" fill="#AF8F11"/>
</g>
<defs>
<clipPath id="clip0_1689_2525">
<rect width="48" height="48" fill="white"/>
</clipPath>
</defs>
</svg>
