<svg width="48" height="48" viewBox="0 0 48 48" fill="none" xmlns="http://www.w3.org/2000/svg">
<g clip-path="url(#clip0_1689_2507)">
<path d="M29 36.0001H19C17.346 36.0001 16 34.6541 16 33.0001V23.0001C16 21.3461 17.346 20.0001 19 20.0001H29C30.654 20.0001 32 21.3461 32 23.0001V33.0001C32 34.6541 30.654 36.0001 29 36.0001ZM19 22.0001C18.45 22.0001 18 22.4501 18 23.0001V33.0001C18 33.5501 18.45 34.0001 19 34.0001H29C29.55 34.0001 30 33.5501 30 33.0001V23.0001C30 22.4501 29.55 22.0001 29 22.0001H19ZM39 48.0001H9C4.038 48.0001 0 43.9621 0 39.0001V19.1221C0 16.1281 1.482 13.3381 3.966 11.6641L18.966 1.54205C22.02 -0.523946 25.976 -0.523946 29.034 1.54205L44.032 11.6641C46.516 13.3401 47.998 16.1281 47.998 19.1221V39.0001C47.998 43.9621 43.962 48.0001 39 48.0001ZM24 1.99205C22.636 1.99205 21.274 2.39405 20.086 3.19805L5.084 13.3181C3.152 14.6221 2 16.7901 2 19.1201V38.9981C2 42.8581 5.14 45.9981 9 45.9981H39C42.86 45.9981 46 42.8581 46 38.9981V19.1221C46 16.7921 44.848 14.6241 42.916 13.3201L27.916 3.19805C26.726 2.39605 25.364 1.99205 24 1.99205Z" fill="#AF8F11"/>
</g>
<defs>
<clipPath id="clip0_1689_2507">
<rect width="48" height="48" fill="white"/>
</clipPath>
</defs>
</svg>
