<svg width="48" height="48" viewBox="0 0 48 48" fill="none" xmlns="http://www.w3.org/2000/svg">
<g clip-path="url(#clip0_1689_2519)">
<path d="M43 48.0001C40.242 48.0001 38 45.7561 38 43.0001V27.0001C38 25.3461 36.654 24.0001 35 24.0001H13C11.346 24.0001 10 25.3461 10 27.0001V43.0001C10 45.7561 7.758 48.0001 5 48.0001C2.242 48.0001 0 45.7561 0 43.0001V19.122C0 16.124 1.482 13.336 3.966 11.662L18.966 1.54005C22.02 -0.521952 25.974 -0.523952 29.032 1.54005L44.032 11.662C46.516 13.336 47.998 16.126 47.998 19.122V43.0001C47.998 45.7561 45.758 48.0001 43 48.0001ZM13 22.0001H35C37.758 22.0001 40 24.2441 40 27.0001V43.0001C40 44.6541 41.346 46.0001 43 46.0001C44.654 46.0001 46 44.6541 46 43.0001V19.122C46 16.79 44.848 14.622 42.916 13.32L27.916 3.19805C25.538 1.59205 22.462 1.59205 20.084 3.19805L5.084 13.32C3.152 14.622 2 16.792 2 19.122V43.0001C2 44.6541 3.346 46.0001 5 46.0001C6.654 46.0001 8 44.6541 8 43.0001V27.0001C8 24.2441 10.242 22.0001 13 22.0001ZM19.6 48.0001H16.4C15.076 48.0001 14 46.9221 14 45.6001V42.4001C14 41.0761 15.076 40.0001 16.4 40.0001H19.6C20.924 40.0001 22 41.0781 22 42.4001V45.6001C22 46.9241 20.924 48.0001 19.6 48.0001ZM16.4 42.0001C16.18 42.0001 16 42.1801 16 42.4001V45.6001C16 45.8201 16.18 46.0001 16.4 46.0001H19.6C19.82 46.0001 20 45.8201 20 45.6001V42.4001C20 42.1801 19.82 42.0001 19.6 42.0001H16.4ZM19.6 36.0001H16.4C15.076 36.0001 14 34.9221 14 33.6001V30.4001C14 29.0761 15.076 28.0001 16.4 28.0001H19.6C20.924 28.0001 22 29.0781 22 30.4001V33.6001C22 34.9241 20.924 36.0001 19.6 36.0001ZM16.4 30.0001C16.18 30.0001 16 30.1801 16 30.4001V33.6001C16 33.8201 16.18 34.0001 16.4 34.0001H19.6C19.82 34.0001 20 33.8201 20 33.6001V30.4001C20 30.1801 19.82 30.0001 19.6 30.0001H16.4ZM31.6 48.0001H28.4C27.076 48.0001 26 46.9221 26 45.6001V42.4001C26 41.0761 27.076 40.0001 28.4 40.0001H31.6C32.924 40.0001 34 41.0781 34 42.4001V45.6001C34 46.9241 32.924 48.0001 31.6 48.0001ZM28.4 42.0001C28.18 42.0001 28 42.1801 28 42.4001V45.6001C28 45.8201 28.18 46.0001 28.4 46.0001H31.6C31.82 46.0001 32 45.8201 32 45.6001V42.4001C32 42.1801 31.82 42.0001 31.6 42.0001H28.4Z" fill="#AF8F11"/>
</g>
<defs>
<clipPath id="clip0_1689_2519">
<rect width="48" height="48" fill="white"/>
</clipPath>
</defs>
</svg>
